<?xml version="1.0" encoding="UTF-8"?>
<svg version="1.1" xmlns="http://www.w3.org/2000/svg" width="1200" height="1200">
<path d="M0 0 C3.8084444 3.37170098 7.48707668 6.86410954 11.14306641 10.39990234 C11.93970703 11.14498047 12.73634766 11.89005859 13.55712891 12.65771484 C20.16753725 18.98782319 25.64860053 26.11011728 31.14306641 33.39990234 C31.77946045 34.22917236 31.77946045 34.22917236 32.42871094 35.07519531 C58.84823906 69.60951402 72.38669215 113.70767707 72.26332092 157.01091003 C72.26460256 158.68497208 72.26460256 158.68497208 72.26591009 160.39285356 C72.26754712 164.10379736 72.26207279 167.81469518 72.2565918 171.52563477 C72.25630952 174.1971751 72.25642451 176.86871269 72.2570343 179.54025269 C72.25755675 185.27718258 72.25443919 191.01410104 72.24879646 196.75102806 C72.24064353 205.04549608 72.23806236 213.33995861 72.23680847 221.63443021 C72.2346239 235.09409918 72.22797997 248.55376206 72.21850586 262.01342773 C72.20931634 275.08243784 72.20224305 288.15144629 72.19799805 301.22045898 C72.19760396 302.43033775 72.19760396 302.43033775 72.19720192 303.66465851 C72.19589681 307.71136483 72.19463312 311.75807116 72.19339001 315.8047775 C72.18303592 349.3364902 72.16543382 382.86819552 72.14306641 416.39990234 C43.18668369 416.47018642 14.23031387 416.52298518 -14.72613716 416.55533886 C-17.41036104 416.55839808 -20.09458485 416.56152205 -22.77880859 416.56469727 C-23.44592609 416.5654842 -24.11304358 416.56627113 -24.80037676 416.56708191 C-34.88923923 416.57927605 -44.97805868 416.6003053 -55.06689453 416.6262207 C-66.79612068 416.65625426 -78.52530826 416.67550829 -90.2545718 416.68216783 C-96.45702637 416.68605657 -102.65937069 416.69510539 -108.8617897 416.71709251 C-114.71731353 416.73767885 -120.57268324 416.74369209 -126.42823982 416.73922539 C-128.56048359 416.7400408 -130.69273333 416.74587294 -132.82494545 416.75751877 C-152.87204796 416.86150531 -172.51690182 414.88022225 -191.85693359 409.39990234 C-193.02844971 409.06829102 -193.02844971 409.06829102 -194.22363281 408.72998047 C-215.90799974 402.41090335 -236.49758106 392.56765158 -254.85693359 379.39990234 C-255.44361816 378.97999023 -256.03030273 378.56007813 -256.63476562 378.12744141 C-264.90888327 372.13075416 -272.48744143 365.45749671 -279.85693359 358.39990234 C-280.35580078 357.9282666 -280.85466797 357.45663086 -281.36865234 356.97070312 C-319.63846868 320.6561891 -341.54622127 268.1424004 -342.95793152 215.64401245 C-343.00444481 211.54151102 -343.02281772 207.44011434 -343.02490234 203.33740234 C-343.02812987 201.81445283 -343.03149495 200.29150361 -343.0349884 198.76855469 C-343.04093214 195.59178959 -343.0428334 192.4150515 -343.04223633 189.23828125 C-343.04215533 186.02696061 -343.04906304 182.81578342 -343.06274414 179.60449219 C-343.33994023 113.52790756 -327.64725251 56.95347702 -280.29443359 8.58740234 C-275.08249485 3.49442369 -269.62365241 -1.14912303 -263.85693359 -5.60009766 C-263.30021973 -6.03322266 -262.74350586 -6.46634766 -262.16992188 -6.91259766 C-252.87138771 -14.1042132 -243.25189374 -20.12893263 -232.85693359 -25.60009766 C-232.21143555 -25.94669434 -231.5659375 -26.29329102 -230.90087891 -26.65039062 C-157.22019195 -66.08382012 -62.97363741 -54.26363655 0 0 Z " fill="#3865E2" transform="translate(708.85693359375,315.60009765625)"/>
<path d="M0 0 C0.78213867 0.22574707 1.56427734 0.45149414 2.37011719 0.68408203 C35.82270844 10.46262878 62.71136267 30.76984472 79.68725586 61.47338867 C89.69870468 80.13604631 94.17511674 99.16796002 94.11352539 120.30078125 C94.11367142 121.61868149 94.11381744 122.93658173 94.1139679 124.29441833 C94.11425337 127.88681908 94.10839709 131.47918605 94.10139394 135.07157898 C94.09511875 138.83385036 94.09455332 142.59612263 94.09336853 146.35839844 C94.09026746 153.47320727 94.08207064 160.58800062 94.07201904 167.70280266 C94.06081981 175.80682217 94.05533787 183.91084245 94.05032361 192.01486778 C94.03988694 208.67658899 94.02155675 225.3382889 94 242 C104.56 242 115.12 242 126 242 C126 255.53 126 269.06 126 283 C102.24 283 78.48 283 54 283 C53.9906543 277.84834229 53.98130859 272.69668457 53.97167969 267.38891602 C53.93784742 250.32974174 53.88246245 233.27068708 53.81609726 216.21160984 C53.77639925 205.87308578 53.74396003 195.53463683 53.72900391 185.19604492 C53.7159393 176.17801205 53.68885286 167.16014506 53.64538693 158.14220566 C53.62287969 153.37352366 53.60708282 148.60504544 53.60811615 143.83630562 C53.60886917 139.33410888 53.59066463 134.83236076 53.55883217 130.3302803 C53.55041707 128.69102086 53.54852504 127.05171058 53.55419731 125.41243935 C53.59616037 111.40296625 52.07891237 97.05048012 45.1875 84.5625 C44.84420654 83.90910645 44.50091309 83.25571289 44.1472168 82.58251953 C33.59247825 62.92016094 17.35727446 48.22782338 -4.17578125 41.65234375 C-7.75733681 40.64409431 -11.36245168 39.78422175 -15 39 C-15.77472656 38.80921875 -16.54945313 38.6184375 -17.34765625 38.421875 C-39.68849975 34.86839768 -60.57635266 41.17902839 -78.875 53.875 C-101.24322758 71.15345124 -109.0741209 92.51884627 -113 120 C-126.2 120 -139.4 120 -153 120 C-153 85.61211251 -139.77178027 55.98213786 -115.875 31.5 C-86.74966615 2.52248905 -40.02078298 -12.04051394 0 0 Z " fill="#FDFDFE" transform="translate(603,366)"/>
<path d="M0 0 C7.57391556 5.2519125 13.17051985 12.89618298 14.96875 22.05859375 C15.75104114 33.61103266 13.9356719 42.65725317 6.96875 52.05859375 C1.00184818 58.58445592 -6.78252082 62.70867847 -15.60546875 63.296875 C-23.45586884 63.50956352 -30.26634351 63.4943835 -37.03125 59.05859375 C-37.81113281 58.54941406 -38.59101562 58.04023437 -39.39453125 57.515625 C-47.27752537 51.87754246 -52.10760592 44.6033926 -54.03125 35.05859375 C-55.21947193 24.89994908 -53.31031452 16.46543485 -47.609375 7.9296875 C-35.58213643 -7.03969814 -16.19155723 -9.22844489 0 0 Z " fill="#FDFDFE" transform="translate(593.03125,495.94140625)"/>
<path d="M0 0 C2.64 0 5.28 0 8 0 C8.33 12.54 8.66 25.08 9 38 C11.31 36.02 13.62 34.04 16 32 C19.45716913 30.27141543 23.2135885 30.65639326 27 31 C29.5 31.9375 29.5 31.9375 31 34 C32.23084152 38.38971452 32.35784629 41.90541135 30.9375 46.25 C27.23478409 51.50546774 23.20755674 54.37421133 17 56 C22.02621948 64.30640782 22.02621948 64.30640782 30.1875 68.8125 C35.07868992 67.77011526 38.38371544 65.4753336 42.44921875 62.62890625 C44.74314946 61.16402247 46.31983109 60.33275235 49 60 C49.33 60.33 49.66 60.66 50 61 C49.96519531 60.32195313 49.93039062 59.64390625 49.89453125 58.9453125 C49.66098751 50.91585637 50.27927564 43.15440029 55.3125 36.5625 C60.51576536 31.60124698 64.64905899 30.66658439 71.6328125 30.69921875 C74.17710918 31.02250397 75.81946693 31.66958665 78 33 C80.28468154 35.97008601 80.4248268 39.1701973 80.30859375 42.85546875 C79.2582676 50.15457076 74.45036391 55.39356341 69 60 C67.86993282 60.7937671 66.72531411 61.56752926 65.5625 62.3125 C64.716875 62.869375 63.87125 63.42625 63 64 C63 64.66 63 65.32 63 66 C67.36182045 68.46152395 71.08267854 68.65842101 76 68 C85.85422845 64.66871225 91.10386274 54.41980736 95.5 45.6875 C97.50740807 40.75262182 97.3123625 38.07446834 96 33 C97 32 97 32 100.5625 31.9375 C101.696875 31.958125 102.83125 31.97875 104 32 C103.97679687 30.79601562 103.95359375 29.59203125 103.9296875 28.3515625 C103.91093137 26.77604785 103.89273101 25.20052652 103.875 23.625 C103.85824219 22.8309375 103.84148437 22.036875 103.82421875 21.21875 C103.80664527 19.14507985 103.89664832 17.07116759 104 15 C106 13 106 13 109.0625 12.8125 C112 13 112 13 113 14 C113.08631874 15.34267413 113.10706473 16.68974322 113.09765625 18.03515625 C113.09282227 19.24848633 113.09282227 19.24848633 113.08789062 20.48632812 C113.07532227 21.7615332 113.07532227 21.7615332 113.0625 23.0625 C113.05798828 23.91650391 113.05347656 24.77050781 113.04882812 25.65039062 C113.03700373 27.76695663 113.01906769 29.88348685 113 32 C113.77085937 31.97679687 114.54171875 31.95359375 115.3359375 31.9296875 C116.33882812 31.91164063 117.34171875 31.89359375 118.375 31.875 C119.87160156 31.84019531 119.87160156 31.84019531 121.3984375 31.8046875 C124 32 124 32 126 34 C125.625 37.125 125.625 37.125 125 40 C121.04 40 117.08 40 113 40 C113.33 49.24 113.66 58.48 114 68 C118.88774629 67.54862025 118.88774629 67.54862025 120.8125 64.9375 C121.204375 64.298125 121.59625 63.65875 122 63 C123.98 63.495 123.98 63.495 126 64 C126.8125 66.125 126.8125 66.125 127 69 C124.26746875 73.09879688 121.98350609 75.95694058 117 77 C112.92542507 77.05704405 109.94754717 76.6559942 106.5625 74.3125 C103.62062002 69.95851763 103.87702494 64.84096246 103.90234375 59.7265625 C103.90717773 57.99599609 103.90717773 57.99599609 103.91210938 56.23046875 C103.92467773 54.44576172 103.92467773 54.44576172 103.9375 52.625 C103.94201172 51.41199219 103.94652344 50.19898438 103.95117188 48.94921875 C103.96291646 45.96609493 103.9793416 42.98307321 104 40 C103.73062622 40.85271484 103.73062622 40.85271484 103.45581055 41.72265625 C99.44196869 54.13590579 93.90777389 67.47544394 82.25 74.5 C75.95274207 77.40642674 69.72876222 78.03609364 63 76.0625 C57.70655412 73.91991476 54.44966285 69.37630101 51 65 C50.401875 65.70125 49.80375 66.4025 49.1875 67.125 C43.66750477 72.59808308 35.90209316 76.89450684 28.046875 77.21484375 C19.93209556 76.36310163 14.78532573 68.89437118 10 63 C9.67 62.34 9.34 61.68 9 61 C8.67 65.95 8.34 70.9 8 76 C3 77 3 77 0 76 C0 50.92 0 25.84 0 0 Z M62.4375 41.515625 C59.92092584 44.11426136 59.05742494 46.17767487 58.8046875 49.796875 C58.82789063 50.77140625 58.85109375 51.7459375 58.875 52.75 C58.89304687 53.73484375 58.91109375 54.7196875 58.9296875 55.734375 C58.95289063 56.48203125 58.97609375 57.2296875 59 58 C66.88127565 51.75611069 66.88127565 51.75611069 72 43.3125 C72.22605066 40.93919616 72.22605066 40.93919616 70.6875 39.1875 C67.11562617 36.67395916 65.44308783 39.08109886 62.4375 41.515625 Z M13.75 43.25 C13.06421875 44.03890625 12.3784375 44.8278125 11.671875 45.640625 C10.09379416 47.86763628 9.41542735 49.3363776 9 52 C14.84580433 50.80697871 19.08640124 48.62114204 23 44 C23.81435176 41.9455997 23.81435176 41.9455997 24 40 C22.95989583 38.75989583 22.95989583 38.75989583 20.703125 38.671875 C17.05612015 39.11457501 16.09098473 40.48013257 13.75 43.25 Z " fill="#3764E2" transform="translate(522,788)"/>
<path d="M0 0 C3 0.125 3 0.125 4 1.125 C4.08631874 2.46767413 4.10706473 3.81474322 4.09765625 5.16015625 C4.09443359 5.96904297 4.09121094 6.77792969 4.08789062 7.61132812 C4.07951172 8.46146484 4.07113281 9.31160156 4.0625 10.1875 C4.05798828 11.04150391 4.05347656 11.89550781 4.04882812 12.77539062 C4.03700373 14.89195663 4.01906769 17.00848685 4 19.125 C4.85464844 19.11339844 5.70929687 19.10179687 6.58984375 19.08984375 C7.69457031 19.08082031 8.79929687 19.07179688 9.9375 19.0625 C11.03964844 19.05089844 12.14179687 19.03929687 13.27734375 19.02734375 C16 19.125 16 19.125 17 20.125 C17.125 23.125 17.125 23.125 17 26.125 C16 27.125 16 27.125 13.27734375 27.22265625 C12.17519531 27.21105469 11.07304688 27.19945312 9.9375 27.1875 C8.83277344 27.17847656 7.72804688 27.16945313 6.58984375 27.16015625 C5.73519531 27.14855469 4.88054688 27.13695312 4 27.125 C4.08168661 30.31348562 4.19445074 33.50016987 4.3125 36.6875 C4.33505859 37.58275391 4.35761719 38.47800781 4.38085938 39.40039062 C4.60024212 44.84507143 4.88393453 51.00893453 9 55.125 C15.55871042 56.26564529 19.15430434 53.46109526 24.44921875 49.75390625 C26.76403991 48.27568202 28.35314446 47.64481136 31 47.125 C31.33 46.795 31.66 46.465 32 46.125 C31.99404537 44.62443322 31.9443969 43.12397304 31.875 41.625 C31.82916067 33.59165788 33.90210771 27.37357188 39.4765625 21.5 C43.64513548 17.73759567 48.21969696 17.70027774 53.62109375 17.796875 C56.99851598 18.26272634 58.73477787 19.64056283 61 22.125 C62.89919892 25.92339783 62.60231936 30.21281747 61.3515625 34.18359375 C58.37429221 40.71068632 53.5663616 45.59105439 47.5625 49.4375 C46.716875 49.994375 45.87125 50.55125 45 51.125 C45 51.785 45 52.445 45 53.125 C49.27057559 55.9720504 52.98919238 55.73664788 58 55.125 C68.7334649 50.17109312 73.20004439 37.16348585 78 27.125 C79.65 27.125 81.3 27.125 83 27.125 C82.52133763 33.17232602 81.22178644 37.69308548 78.4375 43.0625 C77.90068604 44.10519043 77.90068604 44.10519043 77.35302734 45.16894531 C72.77138128 53.77031852 67.92380546 60.37999881 58.37109375 63.53515625 C51.31650492 65.29008691 45.17482156 63.81569794 39 60.125 C36.62418459 57.65979747 34.75270034 55.06041682 33 52.125 C32.030625 53.011875 31.06125 53.89875 30.0625 54.8125 C23.60441943 60.29602113 16.7674029 64.68743717 8 64.125 C3.26305718 62.51622697 0.71674892 60.29715012 -2 56.125 C-4.63833968 50.31503921 -4.22497032 44.49429974 -4.125 38.25 C-4.11597656 37.18007813 -4.10695313 36.11015625 -4.09765625 35.0078125 C-4.07419342 32.37997561 -4.04136459 29.75260594 -4 27.125 C-5.299375 27.145625 -6.59875 27.16625 -7.9375 27.1875 C-9.29165633 27.20899454 -10.64756083 27.19648199 -12 27.125 C-13 26.125 -13 26.125 -13.125 23.125 C-13 20.125 -13 20.125 -12 19.125 C-9.32941149 18.98384839 -6.67567762 19.08252893 -4 19.125 C-4.01160156 17.83722656 -4.02320313 16.54945313 -4.03515625 15.22265625 C-4.0445327 13.54427228 -4.05363305 11.86588674 -4.0625 10.1875 C-4.07087891 9.33736328 -4.07925781 8.48722656 -4.08789062 7.61132812 C-4.09111328 6.80244141 -4.09433594 5.99355469 -4.09765625 5.16015625 C-4.10289307 4.4112915 -4.10812988 3.66242676 -4.11352539 2.89086914 C-3.91438253 -0.20676589 -3.13876126 0.13078172 0 0 Z M44 28.125 C40.38562345 33.23498064 40.67972542 38.12281716 41 44.125 C46.9370044 41.56188797 51.01523804 36.5226813 53.4375 30.625 C53.623125 29.8 53.80875 28.975 54 28.125 C52.62514468 26.58333358 52.62514468 26.58333358 51 25.125 C47.94719155 25.125 46.44305581 26.33739819 44 28.125 Z " fill="#3764E2" transform="translate(858,800.875)"/>
<path d="M0 0 C2.5 0.25 2.5 0.25 4.5 2.25 C4.90047444 4.57275177 5.2397104 6.90739357 5.5 9.25 C5.98210938 8.68410156 6.46421875 8.11820313 6.9609375 7.53515625 C7.59257813 6.80167969 8.22421875 6.06820312 8.875 5.3125 C9.50148438 4.58160156 10.12796875 3.85070312 10.7734375 3.09765625 C12.78498752 0.94502467 13.77864973 0.31638976 16.70703125 0.046875 C25.79667745 -0.11665687 25.79667745 -0.11665687 29.5 3.25 C31.3125 6.4375 31.3125 6.4375 32.5 9.25 C32.88671875 8.76789062 33.2734375 8.28578125 33.671875 7.7890625 C34.19265625 7.15742187 34.7134375 6.52578125 35.25 5.875 C36.01570312 4.93527344 36.01570312 4.93527344 36.796875 3.9765625 C39.97468709 0.75501905 42.91057446 -0.06928312 47.375 -0.1875 C51.02352182 -0.12282901 53.19902087 0.26062332 56.0625 2.5625 C59.70203431 6.57531988 59.655983 9.63858674 59.81640625 14.88671875 C59.85830078 16.18544922 59.90019531 17.48417969 59.94335938 18.82226562 C59.98316987 20.19400761 60.02288216 21.56575244 60.0625 22.9375 C60.10570835 24.32097645 60.14932339 25.70444027 60.19335938 27.08789062 C60.29958028 30.47515719 60.40162358 33.86249799 60.5 37.25 C61.16 37.25 61.82 37.25 62.5 37.25 C63.16 36.26 63.82 35.27 64.5 34.25 C66.15 34.58 67.8 34.91 69.5 35.25 C69.1953434 38.60122256 68.82731171 40.78421025 66.875 43.5625 C63.6804164 45.83233572 61.40082013 46.18156456 57.5 46.25 C54.55244268 44.90437601 52.95722728 44.16445456 51.5 41.25 C51.38088853 39.03463737 51.32080917 36.8159915 51.2890625 34.59765625 C51.26099813 33.2506388 51.23233369 31.90363375 51.203125 30.55664062 C51.16183419 28.43237601 51.12494852 26.30834385 51.09863281 24.18383789 C51.07103558 22.13379147 51.02517382 20.0847976 50.9765625 18.03515625 C50.9468335 16.19256226 50.9468335 16.19256226 50.91650391 14.31274414 C50.74433048 11.27790727 50.74433048 11.27790727 49.12646484 9.31030273 C47.47119828 7.98912042 47.47119828 7.98912042 45 8.5 C43.15723859 9.05282842 41.32517122 9.64160959 39.5 10.25 C38.36939252 12.54625945 38.36939252 12.54625945 37.5 15.25 C37.15839844 16.075 36.81679688 16.9 36.46484375 17.75 C36.12582031 18.575 35.78679688 19.4 35.4375 20.25 C35.09589844 21.075 34.75429688 21.9 34.40234375 22.75 C32.5915104 27.76702745 32.24637409 32.77113244 31.9375 38.0625 C31.87272461 39.10180664 31.87272461 39.10180664 31.80664062 40.16210938 C31.70138547 41.85788686 31.60027137 43.55392052 31.5 45.25 C29.1875 45.875 29.1875 45.875 26.5 46.25 C25.51 45.59 24.52 44.93 23.5 44.25 C23.16207464 41.63322508 23.01113911 39.24063608 22.98828125 36.6171875 C22.96135445 35.48943405 22.96135445 35.48943405 22.93388367 34.33889771 C22.87964219 31.93432244 22.84584208 29.52994715 22.8125 27.125 C22.77933898 25.49606583 22.74485045 23.8671581 22.70898438 22.23828125 C22.62390838 18.24233154 22.55716422 14.24644254 22.5 10.25 C18.86245814 8.47694096 18.86245814 8.47694096 15 9 C8.04759454 15.25716491 5.46950375 25.49743748 4.96875 34.55273438 C4.92234375 35.60944336 4.92234375 35.60944336 4.875 36.6875 C4.81699219 37.78481445 4.81699219 37.78481445 4.7578125 38.90429688 C4.66466016 40.68583532 4.58129714 42.46788122 4.5 44.25 C-0.125 46.375 -0.125 46.375 -3.5 45.25 C-5.20949338 41.83101325 -4.66321249 37.91838387 -4.66796875 34.15625 C-4.67129715 33.2537854 -4.67462555 32.3513208 -4.67805481 31.42150879 C-4.68312194 29.51164256 -4.6854632 27.60176747 -4.68530273 25.69189453 C-4.68749111 22.76189699 -4.70565418 19.83227472 -4.72460938 16.90234375 C-4.72754289 15.04948046 -4.72952797 13.19661537 -4.73046875 11.34375 C-4.73765427 10.46352173 -4.74483978 9.58329346 -4.75224304 8.6763916 C-4.72124315 0.47212431 -4.72124315 0.47212431 0 0 Z " fill="#3764E1" transform="translate(948.5,818.75)"/>
<path d="M0 0 C3 0.125 3 0.125 4 1.125 C4.13444188 3.27209916 4.2036787 5.4233328 4.24609375 7.57421875 C4.27906017 8.91081315 4.3122713 10.24740153 4.34570312 11.58398438 C4.39291963 13.69258047 4.43728743 15.80115725 4.47680664 17.90991211 C4.51682467 19.94412179 4.56832392 21.97780529 4.62109375 24.01171875 C4.6461499 25.23076904 4.67120605 26.44981934 4.69702148 27.70581055 C5.00092241 31.1354096 5.77521587 33.91924469 7 37.125 C10.81531837 37.56864167 12.48609366 37.50431182 15.625 35.1875 C22.83931194 25.8848346 24.10562675 15.18088746 24.75390625 3.75 C25 1.125 25 1.125 26 0.125 C29 0 29 0 32 0.125 C33.76418877 1.88918877 33.14593767 4.41049446 33.16113281 6.80297852 C33.17074036 8.01836807 33.1803479 9.23375763 33.19024658 10.48597717 C33.19509694 11.82528496 33.19937518 13.16459493 33.203125 14.50390625 C33.20887732 15.87336733 33.21463505 17.24282839 33.22039795 18.61228943 C33.23092302 21.49161149 33.23675436 24.37090554 33.24023438 27.25024414 C33.24569229 30.92311792 33.26965504 34.59561592 33.29820633 38.26837254 C33.31693027 41.10213762 33.32204368 43.93581446 33.32357025 46.76963615 C33.32803716 48.77693358 33.34664668 50.78418361 33.36553955 52.79139709 C33.34539185 61.09897563 33.07720454 67.50928467 27.5 74.0625 C22.21460479 78.42295105 15.53244109 77.70343339 9 77.125 C4.89184995 75.78524782 1.58624665 73.5158311 -2 71.125 C-2.3125 68.625 -2.3125 68.625 -2 66.125 C-1.01 65.135 -1.01 65.135 0 64.125 C3.43548144 64.32708714 5.96415232 65.5899652 8.9375 67.1875 C12.46283001 68.9999578 14.9806064 69.85579884 19 69.125 C21.71398877 67.21787276 22.79479884 65.94580465 23.6015625 62.71875 C24.17375193 57.5578257 24.10402739 52.43772877 24.0625 47.25 C24.05798828 46.18007813 24.05347656 45.11015625 24.04882812 44.0078125 C24.03709749 41.38015014 24.02068228 38.75260462 24 36.125 C23.60603027 36.60710938 23.21206055 37.08921875 22.80615234 37.5859375 C22.27973145 38.21757813 21.75331055 38.84921875 21.2109375 39.5 C20.69321777 40.12648438 20.17549805 40.75296875 19.64208984 41.3984375 C16.64062391 44.55430534 13.30395801 46.02387207 8.953125 46.21484375 C4.19220686 45.86582907 1.20999341 44.61822812 -2 41.125 C-3.97670327 36.44969332 -4.28116623 32.1433349 -4.23046875 27.13671875 C-4.22978142 26.0210125 -4.22978142 26.0210125 -4.2290802 24.88276672 C-4.22607562 23.32213734 -4.21824354 21.76151048 -4.20581055 20.20092773 C-4.18742307 17.80246485 -4.185302 15.40438577 -4.18554688 13.00585938 C-4.18063593 11.4869758 -4.17480946 9.96809486 -4.16796875 8.44921875 C-4.16685593 7.72949387 -4.1657431 7.00976898 -4.16459656 6.26823425 C-4.10577135 0.17107381 -4.10577135 0.17107381 0 0 Z " fill="#3764E2" transform="translate(751,818.875)"/>
<path d="M0 0 C2.31 0 4.62 0 7 0 C9.0568946 2.0568946 8.25747076 6.35555998 8.31640625 9.19140625 C8.33718735 10.01124496 8.35796844 10.83108368 8.37937927 11.67576599 C8.44496494 14.30458901 8.50380126 16.93351504 8.5625 19.5625 C8.60567667 21.34050561 8.64929067 23.11850065 8.69335938 24.89648438 C8.80065543 29.26421634 8.90189704 33.63205227 9 38 C9.763125 37.21625 10.52625 36.4325 11.3125 35.625 C14.85851599 32.1614495 16.9042658 30.7003953 21.8125 30.625 C26.62935824 30.73032489 29.34434515 31.70099441 33 35 C38.20652788 42.18141776 37.49233219 50.49847802 37 59 C35.73897461 65.66674451 33.16708068 70.78304352 27.5 74.75 C21.84216857 77.57891572 16.53192507 77.38622586 10.3125 76.4375 C7.28000231 76.03698144 5.83485018 76.19004281 3 77 C2.01 76.67 1.02 76.34 0 76 C0 50.92 0 25.84 0 0 Z M15 41 C9.21111646 46.78888354 7.82187768 53.61022351 7.8125 61.5625 C7.86003064 63.37545431 7.91723255 65.18831238 8 67 C12.34014421 69.46039921 16.10454902 69.66557115 21 69 C24.27341199 67.43445513 25.53704193 66.0777364 26.96484375 62.75390625 C29.38003701 55.44154693 30.03041465 48.91336382 27.046875 41.6796875 C25.9906036 39.69545464 25.9906036 39.69545464 23.125 38.3125 C19.21415379 37.92141538 18.0210457 38.53546272 15 41 Z " fill="#3765E2" transform="translate(182,788)"/>
<path d="M0 0 C3 0.125 3 0.125 4 1.125 C4.13444188 3.27209916 4.2036787 5.4233328 4.24609375 7.57421875 C4.27906017 8.91081315 4.3122713 10.24740153 4.34570312 11.58398438 C4.39291963 13.69258047 4.43728743 15.80115725 4.47680664 17.90991211 C4.51682467 19.94412179 4.56832392 21.97780529 4.62109375 24.01171875 C4.6461499 25.23076904 4.67120605 26.44981934 4.69702148 27.70581055 C5.00092241 31.1354096 5.77521587 33.91924469 7 37.125 C10.81531837 37.56864167 12.48609366 37.50431182 15.625 35.1875 C22.83931194 25.8848346 24.10562675 15.18088746 24.75390625 3.75 C25 1.125 25 1.125 26 0.125 C29 0 29 0 32 0.125 C34.03123075 2.15623075 33.25669618 6.30268866 33.31640625 9.09765625 C33.33718735 9.89529892 33.35796844 10.69294159 33.37937927 11.51475525 C33.44496158 14.07224611 33.50379967 16.6298428 33.5625 19.1875 C33.60567699 20.91732882 33.64929101 22.64714679 33.69335938 24.37695312 C33.80065172 28.6261926 33.90189426 32.8755389 34 37.125 C38.24366437 36.72142912 38.24366437 36.72142912 41.6875 34.515625 C45.10841893 28.93626912 47.9432788 23.21204331 50.609375 17.234375 C52.29374855 13.46819145 54.12650832 9.79992599 56 6.125 C57.32 6.455 58.64 6.785 60 7.125 C59.52671334 13.75758673 58.24840161 19.02217204 55.5 25.0625 C55.14832764 25.84302734 54.79665527 26.62355469 54.43432617 27.42773438 C51.05598761 34.57819189 46.79936298 41.73277094 39.484375 45.37890625 C35.76383073 46.49623951 32.68770045 46.3285173 29 45.125 C26.01975437 42.29758748 24.86398414 40.0590637 24 36.125 C23.32904297 36.95644531 23.32904297 36.95644531 22.64453125 37.8046875 C16.29900103 45.40849983 16.29900103 45.40849983 12 46.125 C7.47145016 46.16647024 4.02102361 45.71154548 0.0625 43.4375 C-4.17562532 38.68566252 -4.29234782 33.24756939 -4.23046875 27.13671875 C-4.22978142 26.0210125 -4.22978142 26.0210125 -4.2290802 24.88276672 C-4.22607562 23.32213734 -4.21824354 21.76151048 -4.20581055 20.20092773 C-4.18742307 17.80246485 -4.185302 15.40438577 -4.18554688 13.00585938 C-4.18063593 11.4869758 -4.17480946 9.96809486 -4.16796875 8.44921875 C-4.16685593 7.72949387 -4.1657431 7.00976898 -4.16459656 6.26823425 C-4.10577135 0.17107381 -4.10577135 0.17107381 0 0 Z " fill="#3764E2" transform="translate(244,818.875)"/>
<path d="M0 0 C3 0.125 3 0.125 4 1.125 C4.08631874 2.46767413 4.10706473 3.81474322 4.09765625 5.16015625 C4.09443359 5.96904297 4.09121094 6.77792969 4.08789062 7.61132812 C4.07951172 8.46146484 4.07113281 9.31160156 4.0625 10.1875 C4.05798828 11.04150391 4.05347656 11.89550781 4.04882812 12.77539062 C4.03700373 14.89195663 4.01906769 17.00848685 4 19.125 C4.85464844 19.11339844 5.70929688 19.10179687 6.58984375 19.08984375 C7.69457031 19.08082031 8.79929687 19.07179688 9.9375 19.0625 C11.03964844 19.05089844 12.14179688 19.03929687 13.27734375 19.02734375 C16 19.125 16 19.125 17 20.125 C17.04092937 22.45797433 17.04241723 24.79205225 17 27.125 C12.71 27.125 8.42 27.125 4 27.125 C4.28162486 30.87600343 4.57485857 34.62547201 4.875 38.375 C4.95363281 39.43847656 5.03226562 40.50195312 5.11328125 41.59765625 C5.23896484 43.13486328 5.23896484 43.13486328 5.3671875 44.703125 C5.44050293 45.64575195 5.51381836 46.58837891 5.58935547 47.55957031 C6.00947843 50.18421483 6.5129534 51.92459395 8 54.125 C11.31809464 55.38506315 11.31809464 55.38506315 15 55.125 C19.49188986 51.50205607 21.50235989 47.57250403 23.625 42.375 C24.0727478 41.31635742 24.0727478 41.31635742 24.52954102 40.23632812 C26.60311419 35.2720606 28.43661761 30.27496552 30 25.125 C31.65 25.455 33.3 25.785 35 26.125 C33.90866056 37.53912661 30.16681608 51.68267687 22 60.125 C18.0443393 63.25761453 14.41714367 64.45019992 9.375 64.1875 C4.98256687 63.3998913 1.6291031 61.81533377 -1 58.125 C-3.9985415 51.18981226 -4.39165408 44.45424114 -4.1875 37 C-4.17396484 36.04351563 -4.16042969 35.08703125 -4.14648438 34.1015625 C-4.11159222 31.7754189 -4.06258339 29.4505347 -4 27.125 C-6.64 27.125 -9.28 27.125 -12 27.125 C-12.625 24.8125 -12.625 24.8125 -13 22.125 C-12.01 20.64 -12.01 20.64 -11 19.125 C-7.375 18.9375 -7.375 18.9375 -4 19.125 C-4.01160156 17.83722656 -4.02320313 16.54945313 -4.03515625 15.22265625 C-4.0445327 13.54427228 -4.05363305 11.86588674 -4.0625 10.1875 C-4.07087891 9.33736328 -4.07925781 8.48722656 -4.08789062 7.61132812 C-4.09111328 6.80244141 -4.09433594 5.99355469 -4.09765625 5.16015625 C-4.10289307 4.4112915 -4.10812988 3.66242676 -4.11352539 2.89086914 C-3.91438253 -0.20676589 -3.13876126 0.13078172 0 0 Z " fill="#3764E2" transform="translate(395,800.875)"/>
<path d="M0 0 C2.87556602 1.64991493 4.82690092 3.32207661 6.5 6.25 C5.57603314 8.63691438 5.00709674 9.96023043 2.75 11.25 C-0.71730827 11.25 -2.70486743 9.18947974 -5.5 7.25 C-8.99895914 5.90424649 -10.44679674 6.23532324 -14.125 7.25 C-17.44863033 9.21955871 -18.81552685 10.43043879 -20.06640625 14.08984375 C-21.22549932 19.86442452 -21.22724007 25.27606266 -19.1875 30.8125 C-17.56906832 33.46999539 -17.56906832 33.46999539 -14.5 35.25 C-8.84246796 36.21456284 -3.77930885 35.93486117 1.1875 32.9375 C10.00868571 26.2113459 14.95546138 16.11371451 19.5 6.25 C21.975 6.745 21.975 6.745 24.5 7.25 C22.42578544 19.25861059 16.09597967 31.03965588 6.5625 38.75 C-0.34447602 43.38600531 -6.64746251 44.90762381 -14.91796875 43.8203125 C-20.08360078 42.67934083 -23.3124339 40.63014439 -26.8125 36.5625 C-30.96842167 28.40457969 -31.56478116 19.75854932 -28.78125 10.984375 C-26.52839192 5.89602312 -23.10666221 2.33892199 -18.5 -0.75 C-12.47054509 -2.7598183 -5.79019592 -2.73933202 0 0 Z " fill="#3764E2" transform="translate(494.5,820.75)"/>
<path d="M0 0 C3.07065322 1.15735996 5.64856265 2.64856265 8 5 C8.04063832 6.66617115 8.042721 8.33388095 8 10 C5.75 10.6875 5.75 10.6875 3 11 C2.4225 10.525625 1.845 10.05125 1.25 9.5625 C-2.20399902 7.16388957 -5.90560588 7.56813693 -10 8 C-11.24660324 9.05054601 -11.24660324 9.05054601 -11.375 11.375 C-11.25125 12.24125 -11.1275 13.1075 -11 14 C-6.5832947 17.05461918 -1.59382179 19.13381151 3.2578125 21.40234375 C6.08756669 23.0510182 7.43418374 24.14778923 9 27 C9.88994774 31.85863359 9.47558257 35.95371836 7.4375 40.4375 C3.49029171 44.58712923 -0.67385535 46.12143375 -6.3125 46.5 C-12.50598203 46.30844901 -18.63915494 43.36084506 -23 39 C-22.625 36.375 -22.625 36.375 -22 34 C-20.23828125 33.34765625 -20.23828125 33.34765625 -18 33 C-16.10546875 33.99609375 -16.10546875 33.99609375 -14.1875 35.4375 C-10.32875516 38.02199515 -7.71635662 38.73982065 -3 38 C-0.93597315 37.01951062 -0.93597315 37.01951062 0 35 C0.25048636 31.87450983 0.25048636 31.87450983 0 29 C-0.86238281 28.72671875 -1.72476563 28.4534375 -2.61328125 28.171875 C-5.91540233 27.02927255 -9.02772875 25.73977808 -12.1875 24.25 C-13.21230469 23.78078125 -14.23710938 23.3115625 -15.29296875 22.828125 C-18.5874925 20.60325182 -19.56952843 18.66738349 -21 15 C-21.57655769 11.04646156 -21.19506815 9.36846207 -19.3125 5.8125 C-13.93533547 -0.7272947 -8.02474779 -0.99646802 0 0 Z " fill="#3764E2" transform="translate(719,819)"/>
<path d="M0 0 C2.07210575 1.18221801 3.99960132 2.44100757 5.6953125 4.13671875 C5.73595082 5.8028899 5.7380335 7.4705997 5.6953125 9.13671875 C3.4453125 9.82421875 3.4453125 9.82421875 0.6953125 10.13671875 C0.1178125 9.66234375 -0.4596875 9.18796875 -1.0546875 8.69921875 C-4.50868652 6.30060832 -8.21029338 6.70485568 -12.3046875 7.13671875 C-13.55129074 8.18726476 -13.55129074 8.18726476 -13.6796875 10.51171875 C-13.5559375 11.37796875 -13.4321875 12.24421875 -13.3046875 13.13671875 C-8.8879822 16.19133793 -3.89850929 18.27053026 0.953125 20.5390625 C3.78287919 22.18773695 5.12949624 23.28450798 6.6953125 26.13671875 C7.58526024 30.99535234 7.17089507 35.09043711 5.1328125 39.57421875 C1.15546776 43.75552989 -2.99675998 45.26676543 -8.6796875 45.57421875 C-14.48726673 45.38494944 -20.17425904 43.26714721 -24.3046875 39.13671875 C-23.9296875 37.01171875 -23.9296875 37.01171875 -23.3046875 35.13671875 C-18.5778381 33.60744394 -16.6008082 34.9886584 -12.3046875 37.13671875 C-7.86711786 37.51278397 -6.04652625 37.63127792 -2.3046875 35.13671875 C-2.05452877 31.55314634 -2.05452877 31.55314634 -2.3046875 28.13671875 C-3.16707031 27.8634375 -4.02945312 27.59015625 -4.91796875 27.30859375 C-8.22008983 26.1659913 -11.33241625 24.87649683 -14.4921875 23.38671875 C-15.51699219 22.9175 -16.54179687 22.44828125 -17.59765625 21.96484375 C-20.91359221 19.72551037 -21.92273543 17.85845862 -23.3046875 14.13671875 C-23.72165497 9.94430036 -22.72077398 6.79671799 -20.4921875 3.26171875 C-15.07334572 -2.00229898 -7.0116598 -2.62640138 0 0 Z " fill="#3764E2" transform="translate(329.3046875,819.86328125)"/>
<path d="M0 0 C1.890625 0.9296875 1.890625 0.9296875 4.703125 3.3046875 C5.640625 6.5546875 5.640625 6.5546875 5.703125 9.3046875 C3.515625 9.9921875 3.515625 9.9921875 0.703125 10.3046875 C-0.01875 9.8303125 -0.740625 9.3559375 -1.484375 8.8671875 C-5.64966249 6.5531389 -9.63079791 7.06005822 -14.296875 7.3046875 C-14.71558053 9.63540629 -14.71558053 9.63540629 -14.296875 12.3046875 C-11.0185547 15.64941944 -7.59462835 17.12521033 -3.234375 18.6796875 C0.56150567 20.21578189 2.55351816 21.15168051 5.453125 24.1171875 C7.38810773 29.05139347 7.68001907 33.04240649 5.515625 38.0546875 C2.69185798 41.56005345 -0.00977616 43.87565455 -4.296875 45.3046875 C-10.65686617 45.95699429 -15.52052511 44.99367797 -21.296875 42.3046875 C-23.04296875 40.8671875 -23.04296875 40.8671875 -24.296875 39.3046875 C-23.984375 36.6171875 -23.984375 36.6171875 -23.296875 34.3046875 C-20.16549786 34.03628374 -18.66542817 34.06562598 -15.984375 35.8046875 C-12.12682435 37.95773902 -9.68947214 37.72977755 -5.296875 37.3046875 C-3.12186853 36.29980524 -3.12186853 36.29980524 -2.296875 34.3046875 C-2.0518101 31.85351389 -2.0518101 31.85351389 -3.296875 29.3046875 C-5.90497819 27.43651603 -8.7665499 26.148163 -11.671875 24.8046875 C-21.27060784 20.32211094 -21.27060784 20.32211094 -23.296875 15.3046875 C-23.69809489 11.55996848 -23.62904935 9.09821511 -22.171875 5.6171875 C-16.38269243 -1.52280433 -8.62964381 -2.61237517 0 0 Z " fill="#3764E2" transform="translate(828.296875,819.6953125)"/>
<path d="M0 0 C2.5 0.25 2.5 0.25 4.5 2.25 C4.74543141 4.89787789 4.87349386 7.44903823 4.9140625 10.1015625 C4.93342865 10.87559418 4.9527948 11.64962585 4.9727478 12.44711304 C5.0325983 14.92296275 5.07895011 17.39885883 5.125 19.875 C5.16317482 21.55210377 5.20222625 23.22918784 5.2421875 24.90625 C5.33830409 29.02067353 5.42231439 33.13518886 5.5 37.25 C9.13628089 37.55072714 9.13628089 37.55072714 12.16015625 35.8515625 C15.8827095 30.60473257 18.38466999 25.32224145 20.5 19.25 C22.15 19.58 23.8 19.91 25.5 20.25 C21.80939948 37.02545692 21.80939948 37.02545692 16.0625 42.625 C10.37522731 46.23156317 7.04133638 46.62157053 0.5 45.25 C-2.25795892 43.59522465 -2.51478464 42.20611539 -3.55371094 39.12231445 C-4.52557717 35.14533554 -4.78983214 31.48052316 -4.765625 27.41796875 C-4.76753845 26.70014725 -4.7694519 25.98232574 -4.77142334 25.24275208 C-4.77277465 23.73938645 -4.7691525 22.23600873 -4.76074219 20.73266602 C-4.74994773 18.42633254 -4.76071303 16.12076397 -4.7734375 13.81445312 C-4.77211726 12.34895661 -4.76955768 10.88346058 -4.765625 9.41796875 C-4.76967346 8.72841599 -4.77372192 8.03886322 -4.77789307 7.32841492 C-4.71012608 0.47101261 -4.71012608 0.47101261 0 0 Z " fill="#3864E2" transform="translate(436.5,818.75)"/>
<path d="M0 0 C3.4375 0.1875 3.4375 0.1875 4.4375 1.1875 C4.71064815 6.92361111 4.71064815 6.92361111 4.4375 9.1875 C2.4375 11.1875 2.4375 11.1875 -0.5625 11.4375 C-3.5625 11.1875 -3.5625 11.1875 -5.5625 9.1875 C-5.8125 5.6875 -5.8125 5.6875 -5.5625 2.1875 C-3.5625 0.1875 -3.5625 0.1875 0 0 Z " fill="#3764E2" transform="translate(436.5625,795.8125)"/>
</svg>
